<?xml version="1.0" standalone="no"?>
<!DOCTYPE svg PUBLIC "-//W3C//DTD SVG 20010904//EN"
 "http://www.w3.org/TR/2001/REC-SVG-20010904/DTD/svg10.dtd">
<svg version="1.0" xmlns="http://www.w3.org/2000/svg"
 width="490.000000pt" height="404.000000pt" viewBox="0 0 490.000000 404.000000"
 preserveAspectRatio="xMidYMid meet">

<g transform="translate(0.000000,404.000000) scale(0.100000,-0.100000)"
fill="#000000" stroke="none">
<path d="M4516 3415 c-11 -8 -29 -15 -40 -15 -16 -1 -12 -5 14 -18 25 -12 36
-25 40 -47 l6 -30 7 33 c5 24 15 36 39 47 27 11 29 14 11 15 -12 0 -28 7 -37
15 -18 18 -16 18 -40 0z"/>
<path d="M3594 2446 l1 -378 50 -19 50 -20 68 72 c37 39 104 125 147 191 l80
119 0 149 0 148 -32 11 c-18 5 -50 13 -71 17 -32 5 -62 24 -40 24 4 0 18 8 30
18 l23 17 -38 3 c-220 15 -230 15 -243 -10 l-13 -23 -7 30 c-4 17 -6 -140 -5
-349z"/>
<path d="M1533 2651 c-10 -15 -8 -22 5 -35 16 -14 19 -14 29 3 10 15 8 22 -5
35 -16 14 -19 14 -29 -3z"/>
<path d="M1363 2606 c-38 -25 -38 -37 2 -48 32 -8 54 0 34 13 -11 7 -10 9 4 9
20 0 23 23 5 38 -9 7 -23 3 -45 -12z"/>
<path d="M3090 2428 c0 -178 2 -197 18 -202 9 -4 97 -33 195 -65 l177 -59 0
237 c0 177 -3 242 -13 255 -11 15 -34 18 -180 20 -98 2 -170 -1 -174 -7 -3 -5
-9 -3 -14 4 -5 8 -9 -69 -9 -183z"/>
<path d="M1481 2556 c-13 -14 -28 -23 -32 -20 -5 3 -9 -6 -9 -20 0 -19 -7 -27
-26 -32 -17 -4 -23 -11 -20 -21 3 -8 6 -17 6 -19 0 -2 8 -4 18 -4 10 0 35 17
56 39 30 31 37 44 34 71 l-3 32 -24 -26z"/>
<path d="M1252 2550 c-7 -11 -20 -20 -30 -20 -13 -1 -11 -5 11 -21 15 -11 27
-28 27 -37 1 -14 3 -13 12 3 6 11 16 25 23 30 10 8 8 16 -9 38 -21 26 -22 26
-34 7z"/>
<path d="M1715 2521 c-44 -22 -102 -49 -130 -61 -59 -26 -100 -58 -206 -161
-76 -74 -78 -77 -81 -130 -3 -50 -5 -53 -34 -61 -41 -10 -66 -58 -99 -188 -53
-204 -18 -357 111 -483 126 -123 316 -192 579 -211 l70 -5 -60 14 c-338 78
-517 291 -484 574 27 225 153 455 378 689 33 34 54 62 48 61 -7 0 -48 -17 -92
-38z m-479 -561 c9 0 14 -11 14 -30 0 -27 -3 -30 -30 -30 -28 0 -30 3 -30 36
0 29 3 35 16 30 9 -3 22 -6 30 -6z"/>
<path d="M1100 2400 c0 -5 4 -10 9 -10 6 0 13 5 16 10 3 6 -1 10 -9 10 -9 0
-16 -4 -16 -10z"/>
<path d="M810 2375 c0 -8 7 -15 15 -15 8 0 15 7 15 15 0 8 -7 15 -15 15 -8 0
-15 -7 -15 -15z"/>
<path d="M2795 2360 c-126 -8 -215 -28 -215 -48 0 -8 6 -12 13 -9 6 2 44 12
84 22 l71 17 99 -32 c54 -18 104 -35 111 -38 8 -3 12 9 12 41 0 47 -11 59 -53
55 -12 0 -67 -4 -122 -8z"/>
<path d="M900 2240 l0 -70 35 0 c24 0 35 -5 35 -15 0 -11 12 -15 50 -15 l50 0
0 73 c0 43 -5 78 -12 85 -7 7 -42 12 -85 12 l-73 0 0 -70z"/>
<path d="M672 2261 c4 -13 18 -16 19 -4 0 4 -5 9 -11 12 -7 2 -11 -2 -8 -8z"/>
<path d="M4206 2263 c-4 -5 -11 -8 -14 -8 -4 -1 -36 -15 -72 -31 -36 -17 -76
-36 -90 -43 -14 -6 -47 -29 -75 -51 -27 -22 -59 -40 -71 -40 -11 0 -29 -9 -39
-20 -10 -11 -24 -20 -31 -20 -8 0 -20 -13 -28 -28 -15 -29 -148 -150 -292
-266 -191 -153 -509 -333 -716 -405 -255 -89 -612 -159 -818 -162 -52 -1 -147
4 -210 10 -63 6 -133 13 -156 15 -55 4 -212 86 -244 127 -7 9 -68 45 -105 62
-16 8 -59 43 -93 77 -52 52 -71 80 -103 155 -52 121 -71 197 -67 270 l3 60
-32 3 c-28 3 -33 7 -33 30 0 15 -4 33 -9 40 -17 27 -70 -152 -78 -263 -15
-222 88 -397 292 -495 216 -105 398 -135 800 -135 351 1 557 27 868 111 450
121 879 368 1172 676 130 136 189 209 244 301 20 32 18 51 -3 30z"/>
<path d="M2360 2164 c-212 -52 -430 -104 -484 -117 -55 -12 -101 -27 -102 -32
-2 -6 49 -30 114 -55 l117 -45 3 -123 c2 -112 1 -124 -19 -152 -19 -25 -21
-33 -11 -55 10 -21 9 -37 -3 -79 -15 -49 -36 -290 -25 -280 3 3 10 20 17 37
l11 32 1 -27 c1 -30 15 -37 25 -13 7 20 30 19 47 -2 13 -15 15 -13 20 13 l6
29 11 -25 c17 -40 15 173 -2 238 -11 41 -12 60 -4 78 10 20 8 29 -10 54 -20
26 -22 42 -22 144 l0 114 63 -20 64 -21 99 31 c299 92 370 116 375 125 9 14
101 20 119 8 19 -13 20 -12 -80 -43 -321 -100 -441 -141 -433 -149 5 -5 115
-50 244 -100 l234 -91 120 38 c66 20 183 56 260 80 427 130 535 169 535 193 0
4 -30 18 -67 31 -38 13 -70 26 -73 30 -5 6 -699 233 -745 243 -11 3 -193 -38
-405 -89z"/>
<path d="M4278 2166 c-77 -120 -139 -202 -226 -299 -53 -59 -98 -112 -100
-117 -2 -5 12 -16 30 -26 18 -9 64 -36 101 -61 38 -24 73 -41 78 -37 14 8 66
126 93 213 32 99 58 256 54 319 l-3 49 -27 -41z"/>
<path d="M720 2100 c0 -28 3 -30 35 -30 32 0 35 2 35 30 0 28 -3 30 -35 30
-32 0 -35 -2 -35 -30z"/>
<path d="M960 2060 c0 -15 7 -20 25 -20 18 0 25 5 25 20 0 15 -7 20 -25 20
-18 0 -25 -5 -25 -20z"/>
<path d="M2200 1620 c0 -156 1 -162 24 -185 13 -13 41 -32 63 -44 42 -21 235
-81 261 -81 9 0 73 18 142 41 142 46 388 163 503 239 l77 51 0 55 c0 30 -4 54
-9 54 -4 0 -113 -33 -242 -74 -129 -41 -246 -78 -261 -81 -24 -6 -137 32 -501
171 -20 8 -42 14 -47 14 -6 0 -10 -62 -10 -160z"/>
<path d="M656 1156 c-31 -40 -56 -76 -56 -80 0 -3 64 -6 142 -6 130 0 141 1
121 15 -17 12 -24 30 -29 74 -6 56 -8 59 -36 65 -74 15 -84 10 -142 -68z"/>
<path d="M4233 1223 l-42 -4 -7 -57 c-5 -39 -13 -61 -28 -74 -20 -17 -16 -17
122 -18 78 0 142 2 142 5 0 18 -115 155 -129 153 -9 -1 -35 -3 -58 -5z"/>
<path d="M533 961 l-31 -51 326 1 c180 1 320 3 312 5 -9 3 -21 13 -28 24 -9
15 -9 22 3 33 12 13 10 16 -23 21 -20 3 -147 8 -282 11 l-245 6 -32 -50z"/>
<path d="M4073 1003 c-69 -4 -73 -5 -73 -28 0 -13 -9 -30 -20 -38 -18 -13 13
-15 262 -19 156 -3 284 -5 285 -4 1 1 -12 22 -30 49 l-31 47 -160 -2 c-89 -1
-194 -4 -233 -5z"/>
<path d="M540 842 l-75 -3 -33 -56 -32 -56 97 6 c54 4 222 12 375 18 267 12
275 13 245 29 -18 9 -36 26 -42 38 -5 11 -22 23 -38 26 -30 6 -362 5 -497 -2z"/>
<path d="M3997 841 c-10 -4 -18 -10 -18 -14 2 -19 0 -25 -18 -44 l-19 -20 187
-7 c102 -3 259 -11 349 -17 89 -7 165 -10 168 -7 2 3 -9 28 -26 55 l-31 50
-76 7 c-101 8 -493 6 -516 -3z"/>
<path d="M2285 683 c28 -14 66 -32 85 -40 35 -13 35 -13 11 4 -23 17 -128 64
-140 63 -3 -1 17 -13 44 -27z"/>
<path d="M2822 703 c-26 -5 -151 -69 -167 -85 -12 -13 -12 -13 89 35 43 20 82
37 87 37 4 0 11 5 14 10 3 6 5 9 3 9 -2 -1 -13 -4 -26 -6z"/>
<path d="M750 655 c-162 -15 -368 -44 -387 -54 -9 -5 5 -28 45 -75 l57 -69
110 6 c391 22 692 29 1040 24 413 -6 547 -15 740 -48 180 -31 204 -33 290 -15
247 50 678 71 1220 62 215 -4 473 -13 575 -20 l185 -12 28 25 c46 41 91 112
78 121 -14 8 -186 34 -341 52 -64 7 -260 12 -505 12 -353 0 -421 -2 -582 -22
-242 -30 -447 -65 -619 -107 l-142 -35 -163 39 c-183 44 -331 72 -554 102
-196 27 -847 36 -1075 14z"/>
<path d="M2765 641 c-64 -23 -178 -81 -172 -87 6 -6 279 84 292 97 16 16 -67
9 -120 -10z"/>
<path d="M2241 643 c-8 -3 46 -27 120 -53 74 -26 143 -51 154 -55 62 -23 -65
44 -144 77 -96 39 -105 41 -130 31z"/>
</g>
</svg>
